<svg width="146" height="146" viewBox="0 0 146 146" fill="none" xmlns="http://www.w3.org/2000/svg">
<path d="M146 17.6207V30.2069H0V17.6207L73 0L146 17.6207Z" fill="#CCF5E1"/>
<path d="M133.415 125.861H108.242V135.93H133.415V125.861Z" fill="#CCF5E1"/>
<path d="M37.7584 125.861H12.5859V135.93H37.7584V125.861Z" fill="#CCF5E1"/>
<path d="M140.966 30.207H5.03516V40.276H140.966V30.207Z" fill="#002F68"/>
<path d="M32.7245 50.3438H17.6211V125.861H32.7245V50.3438Z" fill="#002F68"/>
<path d="M128.379 50.3438H113.275V125.861H128.379V50.3438Z" fill="#002F68"/>
<path d="M146 135.93H0V145.999H146V135.93Z" fill="#002F68"/>
<path d="M133.415 40.2754H108.242V50.3444H133.415V40.2754Z" fill="#CCF5E1"/>
<path d="M37.7584 40.2754H12.5859V50.3444H37.7584V40.2754Z" fill="#CCF5E1"/>
<path d="M73.0009 22.6542C77.1716 22.6542 80.5527 19.2732 80.5527 15.1025C80.5527 10.9318 77.1716 7.55078 73.0009 7.55078C68.8302 7.55078 65.4492 10.9318 65.4492 15.1025C65.4492 19.2732 68.8302 22.6542 73.0009 22.6542Z" fill="#19D176"/>
<path d="M140.966 60.4141H65.4485C62.6681 60.4141 60.4141 62.6681 60.4141 65.4485V105.724C60.4141 108.505 62.6681 110.759 65.4485 110.759H140.966C143.746 110.759 146 108.505 146 105.724V65.4485C146 62.6681 143.746 60.4141 140.966 60.4141Z" fill="#60AFF0"/>
<path d="M146 70.4824H60.4141V80.5514H146V70.4824Z" fill="#002F68"/>
<path d="M127.12 98.9532C126.448 99.7287 125.555 100.28 124.56 100.534C123.566 100.788 122.517 100.731 121.556 100.372C120.594 100.014 119.765 99.3697 119.18 98.5267C118.595 97.6836 118.281 96.6819 118.281 95.6556C118.281 94.6293 118.595 93.6275 119.18 92.7845C119.765 91.9415 120.594 91.2974 121.556 90.9387C122.517 90.5799 123.566 90.5236 124.56 90.7773C125.555 91.031 126.448 91.5825 127.12 92.358C127.792 91.5825 128.685 91.031 129.68 90.7773C130.674 90.5236 131.722 90.5799 132.684 90.9387C133.645 91.2974 134.474 91.9415 135.06 92.7845C135.645 93.6275 135.959 94.6293 135.959 95.6556C135.959 96.6819 135.645 97.6836 135.06 98.5267C134.474 99.3697 133.645 100.014 132.684 100.372C131.722 100.731 130.674 100.788 129.68 100.534C128.685 100.28 127.792 99.7287 127.12 98.9532Z" fill="#CCF5E1"/>
<path d="M78.0338 88.1035H67.9648V93.138H78.0338V88.1035Z" fill="white"/>
<path d="M85.5855 98.1719H67.9648V103.206H85.5855V98.1719Z" fill="white"/>
</svg>
