<svg width="142" height="146" viewBox="0 0 142 146" fill="none" xmlns="http://www.w3.org/2000/svg">
<path d="M108.736 112.813C108.736 131.145 84.3729 146.001 54.3481 146.001C24.3229 146.001 0 131.145 0 112.813C0 94.4812 24.3229 25.084 54.3481 25.084C84.3726 25.084 108.736 94.4812 108.736 112.813Z" fill="#60AFF0"/>
<path d="M74.9638 0C73.4586 14.705 64.32 25.083 54.3674 25.083C44.4152 25.083 35.2766 14.7047 33.7715 0C47.5022 7.06791 61.233 7.06791 74.9638 0Z" fill="#60AFF0"/>
<path d="M74.4319 94.7413C74.4319 105.766 65.441 114.69 54.358 114.69C43.2958 114.69 34.3047 105.767 34.3047 94.7413C34.3047 83.7161 43.2955 74.793 54.358 74.793C65.441 74.793 74.4319 83.7161 74.4319 94.7413Z" fill="white"/>
<path d="M69.5487 25.0907C69.5487 27.4126 67.6554 29.2946 65.3204 29.2946H43.4138C41.0784 29.2946 39.1855 27.4122 39.1855 25.0907C39.1855 22.7687 41.0788 20.8867 43.4138 20.8867H65.3204C67.6558 20.8864 69.5487 22.7687 69.5487 25.0907Z" fill="#A8D0FF"/>
<path d="M141.999 79.9218L86.5638 79.923L86.5641 89.6016L68.7773 73.2018L86.5629 56.8008L86.5632 66.4791L126.843 66.4782" fill="#002F68"/>
<path d="M130.734 52.7227L75.2982 52.7239L75.2985 62.4023L57.5117 46.0024L75.2972 29.6016L75.2975 39.2801L115.577 39.2792" fill="#002F68"/>
</svg>
