<svg width="173" height="146" viewBox="0 0 173 146" fill="none" xmlns="http://www.w3.org/2000/svg">
<path fill-rule="evenodd" clip-rule="evenodd" d="M131.666 88.0397V64.155C131.667 63.1891 131.479 62.2324 131.111 61.3397C130.743 60.447 130.203 59.6359 129.523 58.9529C128.842 58.2699 128.033 57.7284 127.143 57.3595C126.253 56.9905 125.3 56.8014 124.337 56.8028H99.7085C99.7085 56.8028 99.7084 56.8028 99.7084 56.8027H10.3438V56.8028H7.36645C6.40083 56.7979 5.44376 56.9845 4.55024 57.3517C3.65672 57.719 2.84435 58.2598 2.15982 58.943C1.47529 59.6262 0.932096 60.4384 0.561443 61.3328C0.19079 62.2272 -1.2439e-05 63.1864 6.08227e-10 64.155V138.647C-1.2439e-05 139.616 0.19079 140.575 0.561443 141.469C0.932096 142.364 1.47529 143.176 2.15982 143.859C2.84435 144.542 3.65672 145.083 4.55024 145.45C5.44376 145.818 6.40083 146.004 7.36645 145.999H124.337C125.3 146.001 126.253 145.812 127.143 145.443C128.033 145.074 128.842 144.532 129.523 143.849C130.203 143.166 130.743 142.355 131.111 141.462C131.479 140.57 131.667 139.613 131.666 138.647V137.415H131.667V88.0402C131.667 88.04 131.666 88.0399 131.666 88.0397Z" fill="#002F68"/>
<path d="M34.5207 70.6035H16.5293C15.4247 70.6035 14.5293 71.4989 14.5293 72.6035V90.6638C14.5293 91.7683 15.4247 92.6638 16.5293 92.6638H34.5207C35.6253 92.6638 36.5207 91.7683 36.5207 90.6638V72.6035C36.5207 71.4989 35.6253 70.6035 34.5207 70.6035Z" fill="#60AFF0"/>
<path d="M117.715 81.6194C117.71 83.1321 117.406 84.6288 116.822 86.0233C115.974 87.9876 114.574 89.6619 112.793 90.8419C111.013 92.0218 108.928 92.6565 106.794 92.6683C104.66 92.6802 102.569 92.0688 100.776 90.9087C98.9822 89.7487 97.564 88.09 96.6942 86.1352C95.6675 88.4413 93.8829 90.324 91.6387 91.4686C89.3944 92.6133 86.8264 92.9506 84.3641 92.4241C81.9017 91.8975 79.694 90.5392 78.1102 88.576C76.5263 86.6127 75.6621 84.1637 75.6621 81.6381C75.6621 79.1125 76.5263 76.6634 78.1102 74.7002C79.694 72.737 81.9017 71.3787 84.3641 70.8521C86.8264 70.3256 89.3944 70.6629 91.6387 71.8075C93.8829 72.9522 95.6675 74.8349 96.6942 77.141C97.5689 75.2014 98.9806 73.5547 100.761 72.3968C102.542 71.239 104.617 70.6187 106.739 70.6098C107.264 70.604 107.788 70.654 108.302 70.7591C110.559 71.0658 112.661 72.0784 114.311 73.653C115.961 75.2275 117.074 77.2839 117.491 79.5295C117.641 80.216 117.716 80.9167 117.715 81.6194Z" fill="#60AFF0"/>
<path d="M41.6102 127.598H13.2903C12.5503 127.598 11.8406 127.303 11.3173 126.778C10.794 126.253 10.5 125.541 10.5 124.799C10.5 124.057 10.794 123.345 11.3173 122.82C11.8406 122.295 12.5503 122 13.2903 122H41.6102C42.3503 122 43.06 122.295 43.5833 122.82C44.1066 123.345 44.4005 124.057 44.4005 124.799C44.4005 125.541 44.1066 126.253 43.5833 126.778C43.06 127.303 42.3503 127.598 41.6102 127.598ZM81.9768 127.598H53.6607C52.9206 127.598 52.2109 127.303 51.6876 126.778C51.1643 126.253 50.8704 125.541 50.8704 124.799C50.8704 124.057 51.1643 123.345 51.6876 122.82C52.2109 122.295 52.9206 122 53.6607 122H81.9768C82.7169 122 83.4266 122.295 83.9499 122.82C84.4732 123.345 84.7672 124.057 84.7672 124.799C84.7672 125.541 84.4732 126.253 83.9499 126.778C83.4266 127.303 82.7169 127.598 81.9768 127.598ZM41.6102 141.198H13.2903C12.5503 141.198 11.8406 140.903 11.3173 140.378C10.794 139.853 10.5 139.141 10.5 138.399C10.5 137.656 10.794 136.944 11.3173 136.419C11.8406 135.895 12.5503 135.6 13.2903 135.6H41.6102C42.3503 135.6 43.06 135.895 43.5833 136.419C44.1066 136.944 44.4005 137.656 44.4005 138.399C44.4005 139.141 44.1066 139.853 43.5833 140.378C43.06 140.903 42.3503 141.198 41.6102 141.198ZM81.9768 141.198H53.6607C52.9206 141.198 52.2109 140.903 51.6876 140.378C51.1643 139.853 50.8704 139.141 50.8704 138.399C50.8704 137.656 51.1643 136.944 51.6876 136.419C52.2109 135.895 52.9206 135.6 53.6607 135.6H81.9768C82.7169 135.6 83.4266 135.895 83.9499 136.419C84.4732 136.944 84.7672 137.656 84.7672 138.399C84.7672 139.141 84.4732 139.853 83.9499 140.378C83.4266 140.903 82.7169 141.198 81.9768 141.198Z" fill="white"/>
<path fill-rule="evenodd" clip-rule="evenodd" d="M172.927 15.5429C172.952 15.2386 172.976 14.9342 173 14.6297C172.487 14.6002 171.975 14.5659 171.464 14.5269C165.771 14.0929 160.141 13.0741 154.663 11.4887C152.757 10.937 150.869 10.3168 149.003 9.62874C142.92 7.00356 137.113 3.77811 131.666 0C131.666 2.42559e-05 131.666 4.85118e-05 131.666 7.27677e-05C131.666 4.85118e-05 131.666 2.4256e-05 131.666 0C126.229 3.77281 120.434 6.99803 114.366 9.62874C110.173 11.2317 105.838 12.4314 101.419 13.2115C99.2981 13.6221 97.3634 13.9206 95.7264 14.1072C95.7264 14.1072 95.7264 14.1072 95.7264 14.1072C92.4526 14.5551 90.332 14.6297 90.332 14.6297C91.4383 29.0634 94.5954 43.2645 99.7075 56.8021C99.8811 57.1753 100.051 57.5527 100.22 57.93C100.559 58.6847 100.898 59.4394 101.27 60.1609C108.043 72.5751 118.735 82.3812 131.666 88.0395C139.347 84.6465 146.316 79.8213 152.203 73.8203C156.196 69.8252 159.525 65.2135 162.062 60.1609C162.513 59.2554 162.94 58.3011 163.363 57.3572C163.457 57.146 163.551 56.9354 163.646 56.726C163.653 56.714 163.661 56.7021 163.669 56.6901L163.669 56.6895C163.692 56.6857 163.697 56.6639 163.699 56.6381L163.699 56.6379C168.652 43.4314 171.757 29.6015 172.927 15.5429Z" fill="#CCF5E1"/>
<path d="M127.019 61.6754C126.652 61.6756 126.29 61.6033 125.951 61.4623C125.613 61.3214 125.306 61.1148 125.047 60.8543L110.79 46.553C110.524 46.2947 110.312 45.9857 110.165 45.6442C110.019 45.3026 109.943 44.9353 109.94 44.5636C109.937 44.192 110.007 43.8234 110.148 43.4795C110.288 43.1356 110.496 42.8231 110.758 42.5605C111.02 42.2978 111.331 42.0901 111.674 41.9495C112.017 41.8089 112.385 41.7383 112.755 41.7417C113.126 41.7451 113.492 41.8225 113.832 41.9693C114.173 42.1162 114.48 42.3296 114.738 42.597L127.015 54.9128L154.658 27.1836C154.915 26.9161 155.223 26.7027 155.563 26.5559C155.904 26.409 156.27 26.3316 156.64 26.3282C157.011 26.3248 157.378 26.3955 157.721 26.5361C158.064 26.6766 158.376 26.8843 158.638 27.147C158.9 27.4097 159.107 27.7221 159.248 28.066C159.388 28.41 159.459 28.7785 159.456 29.1502C159.453 29.5218 159.376 29.8892 159.23 30.2307C159.084 30.5723 158.872 30.8812 158.605 31.1396L128.987 60.8506C128.729 61.1113 128.423 61.3184 128.085 61.4599C127.747 61.6014 127.385 61.6747 127.019 61.6754Z" fill="#19D176"/>
</svg>
