<svg width="861" height="78" viewBox="0 0 861 78" fill="none" xmlns="http://www.w3.org/2000/svg">
<path d="M1.51247 59.624C1.51247 57.992 1.88047 56.528 2.61647 55.232C3.35247 53.92 4.35247 52.896 5.61647 52.16C6.89647 51.424 8.31247 51.056 9.86447 51.056C11.6885 51.056 13.2805 51.496 14.6405 52.376C16.0005 53.256 16.9925 54.504 17.6165 56.12H15.0005C14.5365 55.112 13.8645 54.336 12.9845 53.792C12.1205 53.248 11.0805 52.976 9.86447 52.976C8.69647 52.976 7.64847 53.248 6.72047 53.792C5.79247 54.336 5.06447 55.112 4.53647 56.12C4.00847 57.112 3.74447 58.28 3.74447 59.624C3.74447 60.952 4.00847 62.12 4.53647 63.128C5.06447 64.12 5.79247 64.888 6.72047 65.432C7.64847 65.976 8.69647 66.248 9.86447 66.248C11.0805 66.248 12.1205 65.984 12.9845 65.456C13.8645 64.912 14.5365 64.136 15.0005 63.128H17.6165C16.9925 64.728 16.0005 65.968 14.6405 66.848C13.2805 67.712 11.6885 68.144 9.86447 68.144C8.31247 68.144 6.89647 67.784 5.61647 67.064C4.35247 66.328 3.35247 65.312 2.61647 64.016C1.88047 62.72 1.51247 61.256 1.51247 59.624ZM26.6035 68.216C25.3715 68.216 24.2515 67.936 23.2435 67.376C22.2515 66.816 21.4675 66.024 20.8915 65C20.3315 63.96 20.0515 62.76 20.0515 61.4C20.0515 60.056 20.3395 58.872 20.9155 57.848C21.5075 56.808 22.3075 56.016 23.3155 55.472C24.3235 54.912 25.4515 54.632 26.6995 54.632C27.9475 54.632 29.0755 54.912 30.0835 55.472C31.0915 56.016 31.8835 56.8 32.4595 57.824C33.0515 58.848 33.3475 60.04 33.3475 61.4C33.3475 62.76 33.0435 63.96 32.4355 65C31.8435 66.024 31.0355 66.816 30.0115 67.376C28.9875 67.936 27.8515 68.216 26.6035 68.216ZM26.6035 66.296C27.3875 66.296 28.1235 66.112 28.8115 65.744C29.4995 65.376 30.0515 64.824 30.4675 64.088C30.8995 63.352 31.1155 62.456 31.1155 61.4C31.1155 60.344 30.9075 59.448 30.4915 58.712C30.0755 57.976 29.5315 57.432 28.8595 57.08C28.1875 56.712 27.4595 56.528 26.6755 56.528C25.8755 56.528 25.1395 56.712 24.4675 57.08C23.8115 57.432 23.2835 57.976 22.8835 58.712C22.4835 59.448 22.2835 60.344 22.2835 61.4C22.2835 62.472 22.4755 63.376 22.8595 64.112C23.2595 64.848 23.7875 65.4 24.4435 65.768C25.0995 66.12 25.8195 66.296 26.6035 66.296ZM42.6271 54.608C44.2271 54.608 45.5231 55.096 46.5151 56.072C47.5071 57.032 48.0031 58.424 48.0031 60.248V68H45.8431V60.56C45.8431 59.248 45.5151 58.248 44.8591 57.56C44.2031 56.856 43.3071 56.504 42.1711 56.504C41.0191 56.504 40.0991 56.864 39.4111 57.584C38.7391 58.304 38.4031 59.352 38.4031 60.728V68H36.2191V54.848H38.4031V56.72C38.8351 56.048 39.4191 55.528 40.1551 55.16C40.9071 54.792 41.7311 54.608 42.6271 54.608ZM56.2267 68.216C55.2187 68.216 54.3147 68.048 53.5147 67.712C52.7147 67.36 52.0827 66.88 51.6187 66.272C51.1547 65.648 50.8987 64.936 50.8507 64.136H53.1067C53.1707 64.792 53.4747 65.328 54.0187 65.744C54.5787 66.16 55.3067 66.368 56.2027 66.368C57.0347 66.368 57.6907 66.184 58.1707 65.816C58.6507 65.448 58.8907 64.984 58.8907 64.424C58.8907 63.848 58.6347 63.424 58.1227 63.152C57.6107 62.864 56.8187 62.584 55.7467 62.312C54.7707 62.056 53.9707 61.8 53.3467 61.544C52.7387 61.272 52.2107 60.88 51.7627 60.368C51.3307 59.84 51.1147 59.152 51.1147 58.304C51.1147 57.632 51.3147 57.016 51.7147 56.456C52.1147 55.896 52.6827 55.456 53.4187 55.136C54.1547 54.8 54.9947 54.632 55.9387 54.632C57.3947 54.632 58.5707 55 59.4667 55.736C60.3627 56.472 60.8427 57.48 60.9067 58.76H58.7227C58.6747 58.072 58.3947 57.52 57.8827 57.104C57.3867 56.688 56.7147 56.48 55.8667 56.48C55.0827 56.48 54.4587 56.648 53.9947 56.984C53.5307 57.32 53.2987 57.76 53.2987 58.304C53.2987 58.736 53.4347 59.096 53.7067 59.384C53.9947 59.656 54.3467 59.88 54.7627 60.056C55.1947 60.216 55.7867 60.4 56.5387 60.608C57.4827 60.864 58.2507 61.12 58.8427 61.376C59.4347 61.616 59.9387 61.984 60.3547 62.48C60.7867 62.976 61.0107 63.624 61.0267 64.424C61.0267 65.144 60.8267 65.792 60.4267 66.368C60.0267 66.944 59.4587 67.4 58.7227 67.736C58.0027 68.056 57.1707 68.216 56.2267 68.216ZM76.1097 60.92C76.1097 61.336 76.0857 61.776 76.0377 62.24H65.5257C65.6057 63.536 66.0457 64.552 66.8457 65.288C67.6617 66.008 68.6457 66.368 69.7977 66.368C70.7417 66.368 71.5257 66.152 72.1497 65.72C72.7897 65.272 73.2377 64.68 73.4937 63.944H75.8457C75.4937 65.208 74.7897 66.24 73.7337 67.04C72.6777 67.824 71.3657 68.216 69.7977 68.216C68.5497 68.216 67.4297 67.936 66.4377 67.376C65.4617 66.816 64.6937 66.024 64.1337 65C63.5737 63.96 63.2937 62.76 63.2937 61.4C63.2937 60.04 63.5657 58.848 64.1097 57.824C64.6537 56.8 65.4137 56.016 66.3897 55.472C67.3817 54.912 68.5177 54.632 69.7977 54.632C71.0457 54.632 72.1497 54.904 73.1097 55.448C74.0697 55.992 74.8057 56.744 75.3177 57.704C75.8457 58.648 76.1097 59.72 76.1097 60.92ZM73.8537 60.464C73.8537 59.632 73.6697 58.92 73.3017 58.328C72.9337 57.72 72.4297 57.264 71.7897 56.96C71.1657 56.64 70.4697 56.48 69.7017 56.48C68.5977 56.48 67.6537 56.832 66.8697 57.536C66.1017 58.24 65.6617 59.216 65.5497 60.464H73.8537ZM81.1765 56.984C81.5605 56.232 82.1045 55.648 82.8085 55.232C83.5285 54.816 84.4005 54.608 85.4245 54.608V56.864H84.8485C82.4005 56.864 81.1765 58.192 81.1765 60.848V68H78.9925V54.848H81.1765V56.984ZM92.8417 65.984L96.9217 54.848H99.2497L94.0897 68H91.5457L86.3857 54.848H88.7377L92.8417 65.984ZM100.583 61.376C100.583 60.032 100.855 58.856 101.399 57.848C101.943 56.824 102.687 56.032 103.631 55.472C104.591 54.912 105.655 54.632 106.823 54.632C107.975 54.632 108.975 54.88 109.823 55.376C110.671 55.872 111.303 56.496 111.719 57.248V54.848H113.927V68H111.719V65.552C111.287 66.32 110.639 66.96 109.775 67.472C108.927 67.968 107.935 68.216 106.799 68.216C105.631 68.216 104.575 67.928 103.631 67.352C102.687 66.776 101.943 65.968 101.399 64.928C100.855 63.888 100.583 62.704 100.583 61.376ZM111.719 61.4C111.719 60.408 111.519 59.544 111.119 58.808C110.719 58.072 110.175 57.512 109.487 57.128C108.815 56.728 108.071 56.528 107.255 56.528C106.439 56.528 105.695 56.72 105.023 57.104C104.351 57.488 103.815 58.048 103.415 58.784C103.015 59.52 102.815 60.384 102.815 61.376C102.815 62.384 103.015 63.264 103.415 64.016C103.815 64.752 104.351 65.32 105.023 65.72C105.695 66.104 106.439 66.296 107.255 66.296C108.071 66.296 108.815 66.104 109.487 65.72C110.175 65.32 110.719 64.752 111.119 64.016C111.519 63.264 111.719 62.392 111.719 61.4ZM120.282 56.648V64.4C120.282 65.04 120.418 65.496 120.69 65.768C120.962 66.024 121.434 66.152 122.106 66.152H123.714V68H121.746C120.53 68 119.618 67.72 119.01 67.16C118.402 66.6 118.098 65.68 118.098 64.4V56.648H116.394V54.848H118.098V51.536H120.282V54.848H123.714V56.648H120.282ZM127.488 52.712C127.072 52.712 126.72 52.568 126.432 52.28C126.144 51.992 126 51.64 126 51.224C126 50.808 126.144 50.456 126.432 50.168C126.72 49.88 127.072 49.736 127.488 49.736C127.888 49.736 128.224 49.88 128.496 50.168C128.784 50.456 128.928 50.808 128.928 51.224C128.928 51.64 128.784 51.992 128.496 52.28C128.224 52.568 127.888 52.712 127.488 52.712ZM128.544 54.848V68H126.36V54.848H128.544ZM137.162 65.984L141.242 54.848H143.57L138.41 68H135.866L130.706 54.848H133.058L137.162 65.984ZM157.719 60.92C157.719 61.336 157.695 61.776 157.647 62.24H147.135C147.215 63.536 147.655 64.552 148.455 65.288C149.271 66.008 150.255 66.368 151.407 66.368C152.351 66.368 153.135 66.152 153.759 65.72C154.399 65.272 154.847 64.68 155.103 63.944H157.455C157.103 65.208 156.399 66.24 155.343 67.04C154.287 67.824 152.975 68.216 151.407 68.216C150.159 68.216 149.039 67.936 148.047 67.376C147.071 66.816 146.303 66.024 145.743 65C145.183 63.96 144.903 62.76 144.903 61.4C144.903 60.04 145.175 58.848 145.719 57.824C146.263 56.8 147.023 56.016 147.999 55.472C148.991 54.912 150.127 54.632 151.407 54.632C152.655 54.632 153.759 54.904 154.719 55.448C155.679 55.992 156.415 56.744 156.927 57.704C157.455 58.648 157.719 59.72 157.719 60.92ZM155.463 60.464C155.463 59.632 155.279 58.92 154.911 58.328C154.543 57.72 154.039 57.264 153.399 56.96C152.775 56.64 152.079 56.48 151.311 56.48C150.207 56.48 149.263 56.832 148.479 57.536C147.711 58.24 147.271 59.216 147.159 60.464H155.463Z" fill="black"/>
<path d="M752.24 64.28H744.944L743.6 68H741.296L747.344 51.368H749.864L755.888 68H753.584L752.24 64.28ZM751.616 62.504L748.592 54.056L745.568 62.504H751.616ZM763.948 54.632C765.084 54.632 766.076 54.88 766.924 55.376C767.788 55.872 768.428 56.496 768.844 57.248V54.848H771.052V68.288C771.052 69.488 770.796 70.552 770.284 71.48C769.772 72.424 769.036 73.16 768.076 73.688C767.132 74.216 766.028 74.48 764.764 74.48C763.036 74.48 761.596 74.072 760.444 73.256C759.292 72.44 758.612 71.328 758.404 69.92H760.564C760.804 70.72 761.3 71.36 762.052 71.84C762.804 72.336 763.708 72.584 764.764 72.584C765.964 72.584 766.94 72.208 767.692 71.456C768.46 70.704 768.844 69.648 768.844 68.288V65.528C768.412 66.296 767.772 66.936 766.924 67.448C766.076 67.96 765.084 68.216 763.948 68.216C762.78 68.216 761.716 67.928 760.756 67.352C759.812 66.776 759.068 65.968 758.524 64.928C757.98 63.888 757.708 62.704 757.708 61.376C757.708 60.032 757.98 58.856 758.524 57.848C759.068 56.824 759.812 56.032 760.756 55.472C761.716 54.912 762.78 54.632 763.948 54.632ZM768.844 61.4C768.844 60.408 768.644 59.544 768.244 58.808C767.844 58.072 767.3 57.512 766.612 57.128C765.94 56.728 765.196 56.528 764.38 56.528C763.564 56.528 762.82 56.72 762.148 57.104C761.476 57.488 760.94 58.048 760.54 58.784C760.14 59.52 759.94 60.384 759.94 61.376C759.94 62.384 760.14 63.264 760.54 64.016C760.94 64.752 761.476 65.32 762.148 65.72C762.82 66.104 763.564 66.296 764.38 66.296C765.196 66.296 765.94 66.104 766.612 65.72C767.3 65.32 767.844 64.752 768.244 64.016C768.644 63.264 768.844 62.392 768.844 61.4ZM780.167 54.632C781.303 54.632 782.295 54.88 783.143 55.376C784.007 55.872 784.647 56.496 785.063 57.248V54.848H787.271V68.288C787.271 69.488 787.015 70.552 786.503 71.48C785.991 72.424 785.255 73.16 784.295 73.688C783.351 74.216 782.247 74.48 780.983 74.48C779.255 74.48 777.815 74.072 776.663 73.256C775.511 72.44 774.831 71.328 774.623 69.92H776.783C777.023 70.72 777.519 71.36 778.271 71.84C779.023 72.336 779.927 72.584 780.983 72.584C782.183 72.584 783.159 72.208 783.911 71.456C784.679 70.704 785.063 69.648 785.063 68.288V65.528C784.631 66.296 783.991 66.936 783.143 67.448C782.295 67.96 781.303 68.216 780.167 68.216C778.999 68.216 777.935 67.928 776.975 67.352C776.031 66.776 775.287 65.968 774.743 64.928C774.199 63.888 773.927 62.704 773.927 61.376C773.927 60.032 774.199 58.856 774.743 57.848C775.287 56.824 776.031 56.032 776.975 55.472C777.935 54.912 778.999 54.632 780.167 54.632ZM785.063 61.4C785.063 60.408 784.863 59.544 784.463 58.808C784.063 58.072 783.519 57.512 782.831 57.128C782.159 56.728 781.415 56.528 780.599 56.528C779.783 56.528 779.039 56.72 778.367 57.104C777.695 57.488 777.159 58.048 776.759 58.784C776.359 59.52 776.159 60.384 776.159 61.376C776.159 62.384 776.359 63.264 776.759 64.016C777.159 64.752 777.695 65.32 778.367 65.72C779.039 66.104 779.783 66.296 780.599 66.296C781.415 66.296 782.159 66.104 782.831 65.72C783.519 65.32 784.063 64.752 784.463 64.016C784.863 63.264 785.063 62.392 785.063 61.4ZM793.145 56.984C793.529 56.232 794.073 55.648 794.777 55.232C795.497 54.816 796.369 54.608 797.393 54.608V56.864H796.817C794.369 56.864 793.145 58.192 793.145 60.848V68H790.961V54.848H793.145V56.984ZM811.914 60.92C811.914 61.336 811.89 61.776 811.842 62.24H801.33C801.41 63.536 801.85 64.552 802.65 65.288C803.466 66.008 804.45 66.368 805.602 66.368C806.546 66.368 807.33 66.152 807.954 65.72C808.594 65.272 809.042 64.68 809.298 63.944H811.65C811.298 65.208 810.594 66.24 809.538 67.04C808.482 67.824 807.17 68.216 805.602 68.216C804.354 68.216 803.234 67.936 802.242 67.376C801.266 66.816 800.498 66.024 799.938 65C799.378 63.96 799.098 62.76 799.098 61.4C799.098 60.04 799.37 58.848 799.914 57.824C800.458 56.8 801.218 56.016 802.194 55.472C803.186 54.912 804.322 54.632 805.602 54.632C806.85 54.632 807.954 54.904 808.914 55.448C809.874 55.992 810.61 56.744 811.122 57.704C811.65 58.648 811.914 59.72 811.914 60.92ZM809.658 60.464C809.658 59.632 809.474 58.92 809.106 58.328C808.738 57.72 808.234 57.264 807.594 56.96C806.97 56.64 806.274 56.48 805.506 56.48C804.402 56.48 803.458 56.832 802.674 57.536C801.906 58.24 801.466 59.216 801.354 60.464H809.658ZM819.453 68.216C818.445 68.216 817.541 68.048 816.741 67.712C815.941 67.36 815.309 66.88 814.845 66.272C814.381 65.648 814.125 64.936 814.077 64.136H816.333C816.397 64.792 816.701 65.328 817.245 65.744C817.805 66.16 818.533 66.368 819.429 66.368C820.261 66.368 820.917 66.184 821.397 65.816C821.877 65.448 822.117 64.984 822.117 64.424C822.117 63.848 821.861 63.424 821.349 63.152C820.837 62.864 820.045 62.584 818.973 62.312C817.997 62.056 817.197 61.8 816.573 61.544C815.965 61.272 815.437 60.88 814.989 60.368C814.557 59.84 814.341 59.152 814.341 58.304C814.341 57.632 814.541 57.016 814.941 56.456C815.341 55.896 815.909 55.456 816.645 55.136C817.381 54.8 818.221 54.632 819.165 54.632C820.621 54.632 821.797 55 822.693 55.736C823.589 56.472 824.069 57.48 824.133 58.76H821.949C821.901 58.072 821.621 57.52 821.109 57.104C820.613 56.688 819.941 56.48 819.093 56.48C818.309 56.48 817.685 56.648 817.221 56.984C816.757 57.32 816.525 57.76 816.525 58.304C816.525 58.736 816.661 59.096 816.933 59.384C817.221 59.656 817.573 59.88 817.989 60.056C818.421 60.216 819.013 60.4 819.765 60.608C820.709 60.864 821.477 61.12 822.069 61.376C822.661 61.616 823.165 61.984 823.581 62.48C824.013 62.976 824.237 63.624 824.253 64.424C824.253 65.144 824.053 65.792 823.653 66.368C823.253 66.944 822.685 67.4 821.949 67.736C821.229 68.056 820.397 68.216 819.453 68.216ZM828.464 52.712C828.048 52.712 827.696 52.568 827.408 52.28C827.12 51.992 826.976 51.64 826.976 51.224C826.976 50.808 827.12 50.456 827.408 50.168C827.696 49.88 828.048 49.736 828.464 49.736C828.864 49.736 829.2 49.88 829.472 50.168C829.76 50.456 829.904 50.808 829.904 51.224C829.904 51.64 829.76 51.992 829.472 52.28C829.2 52.568 828.864 52.712 828.464 52.712ZM829.52 54.848V68H827.336V54.848H829.52ZM838.139 65.984L842.219 54.848H844.547L839.387 68H836.843L831.683 54.848H834.035L838.139 65.984ZM858.696 60.92C858.696 61.336 858.672 61.776 858.624 62.24H848.112C848.192 63.536 848.632 64.552 849.432 65.288C850.248 66.008 851.232 66.368 852.384 66.368C853.328 66.368 854.112 66.152 854.736 65.72C855.376 65.272 855.824 64.68 856.08 63.944H858.432C858.08 65.208 857.376 66.24 856.32 67.04C855.264 67.824 853.952 68.216 852.384 68.216C851.136 68.216 850.016 67.936 849.024 67.376C848.048 66.816 847.28 66.024 846.72 65C846.16 63.96 845.88 62.76 845.88 61.4C845.88 60.04 846.152 58.848 846.696 57.824C847.24 56.8 848 56.016 848.976 55.472C849.968 54.912 851.104 54.632 852.384 54.632C853.632 54.632 854.736 54.904 855.696 55.448C856.656 55.992 857.392 56.744 857.904 57.704C858.432 58.648 858.696 59.72 858.696 60.92ZM856.44 60.464C856.44 59.632 856.256 58.92 855.888 58.328C855.52 57.72 855.016 57.264 854.376 56.96C853.752 56.64 853.056 56.48 852.288 56.48C851.184 56.48 850.24 56.832 849.456 57.536C848.688 58.24 848.248 59.216 848.136 60.464H856.44Z" fill="black"/>
<rect x="0.117188" y="14" width="860" height="13" rx="6.5" fill="url(#paint0_linear_1174_689)"/>
<circle opacity="0.5" cx="421.117" cy="21" r="21" fill="#60AFF0"/>
<circle cx="421.348" cy="21.2285" r="15.75" fill="#60AFF0"/>
<defs>
<linearGradient id="paint0_linear_1174_689" x1="430.117" y1="14" x2="430.117" y2="27" gradientUnits="userSpaceOnUse">
<stop stop-color="#60AFF0"/>
<stop offset="1" stop-color="#076FC5"/>
</linearGradient>
</defs>
</svg>
