<svg width="147" height="146" viewBox="0 0 147 146" fill="none" xmlns="http://www.w3.org/2000/svg">
<path d="M112.66 18.25H97.4518C96.6451 18.25 95.8715 18.5705 95.301 19.1409C94.7306 19.7113 94.4102 20.485 94.4102 21.2917V21.6506L115.702 38.6839V21.2917C115.702 20.485 115.381 19.7113 114.811 19.1409C114.241 18.5705 113.467 18.25 112.66 18.25Z" fill="#6C727F"/>
<path fill-rule="evenodd" clip-rule="evenodd" d="M65.5156 57.7917C65.5156 55.7749 66.3168 53.8408 67.7428 52.4147C69.1689 50.9887 71.103 50.1875 73.1198 50.1875C75.1365 50.1875 77.0707 50.9887 78.4967 52.4147C79.9228 53.8408 80.724 55.7749 80.724 57.7917C80.724 59.8084 79.9228 61.7426 78.4967 63.1686C77.0707 64.5947 75.1365 65.3958 73.1198 65.3958C71.103 65.3958 69.1689 64.5947 67.7428 63.1686C66.3168 61.7426 65.5156 59.8084 65.5156 57.7917Z" fill="#6C727F"/>
<path fill-rule="evenodd" clip-rule="evenodd" d="M126.348 66.6726L131.105 70.4808C132.052 71.2188 133.252 71.5537 134.444 71.4131C135.636 71.2724 136.725 70.6673 137.474 69.7292C138.224 68.791 138.573 67.5954 138.446 66.4014C138.32 65.2075 137.728 64.1115 136.799 63.3511L87.3717 23.8094C83.3264 20.5723 78.2996 18.8086 73.1185 18.8086C67.9374 18.8086 62.9106 20.5723 58.8652 23.8094L9.43816 63.3511C8.4927 64.107 7.88625 65.2075 7.7522 66.4105C7.61815 67.6135 7.96749 68.8205 8.72336 69.766C9.47924 70.7114 10.5797 71.3179 11.7828 71.4519C12.9858 71.586 14.1928 71.2367 15.1382 70.4808L19.8893 66.6726V129.27H12.2852C11.0751 129.27 9.91462 129.751 9.05898 130.606C8.20335 131.462 7.72266 132.623 7.72266 133.833C7.72266 135.043 8.20335 136.203 9.05898 137.059C9.91462 137.914 11.0751 138.395 12.2852 138.395H133.952C135.162 138.395 136.322 137.914 137.178 137.059C138.034 136.203 138.514 135.043 138.514 133.833C138.514 132.623 138.034 131.462 137.178 130.606C136.322 129.751 135.162 129.27 133.952 129.27H126.348V66.6726ZM56.3893 57.7909C56.3893 53.3541 58.1519 49.099 61.2892 45.9616C64.4265 42.8243 68.6816 41.0618 73.1185 41.0618C77.5553 41.0618 81.8105 42.8243 84.9478 45.9616C88.0851 49.099 89.8476 53.3541 89.8476 57.7909C89.8476 62.2278 88.0851 66.4829 84.9478 69.6203C81.8105 72.7576 77.5553 74.5201 73.1185 74.5201C68.6816 74.5201 64.4265 72.7576 61.2892 69.6203C58.1519 66.4829 56.3893 62.2278 56.3893 57.7909ZM73.4227 80.6034C77.462 80.6034 80.9477 80.6034 83.74 80.9806C86.733 81.3821 89.5982 82.2885 91.9221 84.6124C94.2459 86.9362 95.1523 89.8014 95.5538 92.7944C95.9066 95.4103 95.931 98.6344 95.931 102.364V129.27H86.806V103.416C86.806 98.9873 86.7938 96.1159 86.514 94.0111C86.2463 92.034 85.8205 91.4135 85.4677 91.0668C85.1209 90.72 84.5004 90.2881 82.5233 90.0204C80.4124 89.7406 77.5471 89.7284 73.1185 89.7284C68.6898 89.7284 65.8185 89.7406 63.7137 90.0204C61.7366 90.2881 61.1161 90.72 60.7693 91.0668C60.4226 91.4135 59.9907 92.034 59.723 94.0111C59.4432 96.122 59.431 98.9873 59.431 103.416V129.27H50.306V103.112C50.306 99.0724 50.306 95.5867 50.6832 92.7944C51.0847 89.8014 51.9911 86.9362 54.3149 84.6124C56.6387 82.2885 59.5101 81.3821 62.497 80.9806C65.2892 80.6034 68.775 80.6034 72.8204 80.6034H73.4166H73.4227Z" fill="#6C727F"/>
</svg>
